<svg xmlns="http://www.w3.org/2000/svg" width="600" height="800" viewBox="0 0 600 800">
  <rect width="100%" height="100%" fill="#ffffff"/>
  <rect x="60" y="60" width="480" height="28" rx="4" fill="#111827"/>
  <rect x="60" y="110" width="180" height="10" rx="3" fill="#6b7280"/>
  <rect x="60" y="140" width="400" height="8" rx="3" fill="#9ca3af"/>
  <rect x="60" y="160" width="420" height="8" rx="3" fill="#e5e7eb"/>
  <rect x="60" y="210" width="200" height="10" rx="3" fill="#6b7280"/>
  <rect x="60" y="235" width="360" height="8" rx="3" fill="#111827"/>
  <rect x="60" y="255" width="340" height="8" rx="3" fill="#111827"/>
  <rect x="60" y="275" width="320" height="8" rx="3" fill="#111827"/>
  <rect x="60" y="330" width="200" height="10" rx="3" fill="#6b7280"/>
  <rect x="60" y="355" width="420" height="8" rx="3" fill="#111827"/>
  <rect x="60" y="375" width="400" height="8" rx="3" fill="#111827"/>
  <rect x="60" y="395" width="380" height="8" rx="3" fill="#111827"/>
  <text x="70" y="80" font-size="18" font-family="Arial" fill="#fff">Minimal Professional</text>
</svg>
