<svg xmlns="http://www.w3.org/2000/svg" width="600" height="800" viewBox="0 0 600 800">
  <defs>
    <linearGradient id="grad" x1="0" x2="0" y1="0" y2="1">
      <stop offset="0%" stop-color="#8b5cf6"/>
      <stop offset="100%" stop-color="#06b6d4"/>
    </linearGradient>
  </defs>
  <rect width="100%" height="100%" fill="#ffffff"/>
  <rect x="0" y="0" width="160" height="800" fill="url(#grad)"/>
  <rect x="200" y="60" width="340" height="24" rx="4" fill="#111827"/>
  <rect x="200" y="100" width="280" height="10" rx="3" fill="#6b7280"/>
  <rect x="200" y="140" width="140" height="10" rx="3" fill="#6b7280"/>
  <rect x="200" y="165" width="360" height="8" rx="3" fill="#111827"/>
  <rect x="200" y="185" width="340" height="8" rx="3" fill="#111827"/>
  <rect x="200" y="205" width="320" height="8" rx="3" fill="#111827"/>
  <rect x="200" y="255" width="140" height="10" rx="3" fill="#6b7280"/>
  <rect x="200" y="280" width="360" height="8" rx="3" fill="#111827"/>
  <rect x="200" y="300" width="340" height="8" rx="3" fill="#111827"/>
  <rect x="200" y="320" width="320" height="8" rx="3" fill="#111827"/>
  <text x="210" y="80" font-size="18" font-family="Arial" fill="#fff">Modern Creative</text>
</svg>
